<?xml version="1.0" standalone="no"?>
<!DOCTYPE svg PUBLIC "-//W3C//DTD SVG 20010904//EN"
 "http://www.w3.org/TR/2001/REC-SVG-20010904/DTD/svg10.dtd">
<svg version="1.0" xmlns="http://www.w3.org/2000/svg"
 width="704.000000pt" height="704.000000pt" viewBox="0 0 704.000000 704.000000"
 preserveAspectRatio="xMidYMid meet">
<metadata>
Created by potrace 1.14, written by Peter Selinger 2001-2017
</metadata>
<g transform="translate(0.000000,704.000000) scale(0.100000,-0.100000)"
fill="#000000" stroke="none">
<path d="M1539 6406 c-2 -2 -36 -7 -76 -10 -151 -13 -282 -75 -393 -186 -86
-86 -137 -174 -169 -290 -20 -74 -20 -96 -21 -2155 0 -2224 -2 -2136 46 -2242
8 -17 14 -34 14 -38 0 -4 20 -38 46 -76 90 -136 239 -239 399 -275 53 -12 249
-19 264 -9 4 2 13 0 20 -4 7 -5 28 -5 47 -1 19 4 34 5 34 1 0 -7 214 -5 243 3
9 2 17 1 17 -2 0 -6 17 -6 120 -2 14 1 49 0 78 -2 28 -2 52 0 52 3 0 4 18 3
40 -1 22 -4 42 -5 45 -2 3 3 31 5 63 3 31 -1 63 -2 70 -2 39 1 62 1 105 -1 26
-2 47 0 47 4 0 4 6 5 13 3 23 -8 97 -12 97 -5 0 4 18 4 40 0 22 -4 42 -5 45
-2 3 3 31 5 63 3 31 -1 66 -2 77 -1 11 1 26 1 33 1 12 -1 97 -1 130 0 9 0 38
-1 65 -1 26 -1 51 1 55 4 4 2 14 1 21 -3 7 -5 28 -5 47 -1 19 4 34 5 34 1 0
-7 196 -5 215 3 7 2 17 1 24 -4 7 -4 28 -4 47 0 19 4 34 5 34 1 0 -7 214 -6
235 2 8 4 17 2 20 -4 4 -5 11 -7 16 -3 6 3 38 5 72 5 34 -1 97 -3 140 -4 42
-1 77 1 77 5 0 4 6 5 13 3 23 -8 97 -12 97 -5 0 4 18 4 40 0 22 -4 43 -4 45 0
3 4 20 4 39 0 19 -4 40 -4 46 0 7 4 25 4 40 0 15 -4 32 -5 39 -1 6 4 26 6 43
4 18 -2 47 -3 63 -3 40 0 60 0 123 -3 28 -1 52 1 52 5 0 4 6 5 13 3 23 -8 97
-12 97 -5 0 4 18 4 40 0 22 -4 43 -4 45 0 3 4 20 5 37 1 18 -4 48 -4 66 0 18
3 35 3 38 -2 3 -5 10 -7 15 -3 6 3 38 5 72 5 265 -7 402 8 482 52 11 6 23 11
27 12 4 0 36 19 72 43 89 58 170 150 216 247 75 155 70 -27 67 2305 -2 1152
-6 2107 -9 2121 -13 57 -73 183 -112 237 -24 32 -67 79 -96 104 -50 44 -162
112 -185 113 -5 1 -19 6 -30 12 -23 13 -77 22 -154 28 -29 2 -59 6 -67 9 -7 3
-16 1 -19 -3 -3 -5 -20 -5 -39 -1 -19 4 -39 4 -46 0 -6 -4 -29 -4 -51 0 -22 4
-42 4 -44 0 -3 -4 -20 -5 -38 -1 -18 5 -41 5 -52 1 -11 -4 -25 -5 -32 -3 -19
7 -223 9 -223 2 0 -4 -18 -3 -40 1 -22 4 -40 4 -40 0 0 -4 -15 -4 -34 0 -19 4
-39 4 -46 0 -7 -4 -27 -4 -45 0 -18 4 -39 4 -46 -1 -7 -4 -17 -5 -21 -3 -8 5
-103 8 -123 4 -11 -2 -51 0 -80 4 -11 2 -34 0 -52 -5 -18 -4 -35 -3 -38 1 -3
4 -21 4 -40 0 -19 -4 -37 -4 -40 0 -3 4 -21 4 -40 0 -19 -4 -37 -4 -40 0 -3 4
-21 4 -40 0 -19 -4 -37 -4 -40 0 -3 4 -21 4 -40 0 -19 -4 -37 -4 -40 0 -3 4
-21 4 -40 0 -19 -4 -37 -4 -40 0 -3 4 -21 4 -40 0 -20 -4 -38 -4 -41 1 -3 5
-10 7 -15 4 -7 -5 -50 -6 -144 -5 -11 1 -41 0 -68 0 -26 -1 -51 1 -55 4 -4 2
-14 1 -21 -4 -8 -4 -26 -4 -41 0 -15 4 -33 4 -40 0 -7 -4 -24 -4 -39 0 -14 4
-35 4 -46 0 -11 -4 -31 -4 -45 0 -14 4 -34 4 -45 0 -11 -4 -29 -4 -40 0 -11 4
-34 4 -52 -1 -18 -4 -35 -3 -38 1 -2 4 -23 4 -45 0 -22 -4 -40 -4 -40 0 0 4
-20 4 -45 0 -25 -4 -45 -4 -45 -1 0 3 -20 6 -45 6 -25 0 -45 -3 -45 -6 0 -4
-15 -3 -32 0 -18 4 -52 4 -75 1 -24 -4 -43 -4 -43 -1 0 3 -20 6 -45 6 -25 0
-45 -3 -45 -6 0 -4 -16 -3 -35 1 -19 4 -37 4 -40 0 -2 -4 -24 -4 -47 0 -24 5
-45 8 -48 7 -3 0 -20 -4 -38 -8 -17 -4 -34 -3 -37 1 -3 4 -21 4 -40 0 -19 -4
-37 -4 -40 0 -3 4 -21 4 -40 0 -19 -4 -37 -4 -40 0 -3 4 -21 4 -40 0 -19 -4
-37 -4 -40 0 -3 4 -21 4 -40 0 -19 -4 -37 -4 -40 0 -3 4 -21 4 -40 0 -19 -4
-37 -4 -40 0 -3 4 -21 4 -40 0 -19 -4 -37 -4 -40 0 -3 4 -20 5 -37 1 -18 -3
-53 -4 -78 -1 -25 3 -63 3 -85 0 -22 -4 -51 -3 -65 0 -14 4 -34 4 -45 0 -11
-4 -29 -4 -40 0 -11 4 -34 4 -52 0 -17 -4 -35 -4 -40 1 -5 5 -11 7 -14 5z"/>
</g>
</svg>
